<svg width="40" height="40" viewBox="0 0 40 40" fill="none" xmlns="http://www.w3.org/2000/svg">
<g clip-path="url(#clip0_3712_72773)">
<path d="M19.9217 38.2397C9.92172 38.2397 1.76172 30.0797 1.76172 20.0797V2.95969C1.76172 2.23969 2.32172 1.67969 3.04172 1.67969H37.0417C37.7617 1.67969 38.3217 2.23969 38.3217 2.95969V19.9197C38.2417 29.9997 30.0017 38.2397 19.9217 38.2397Z" fill="#22C55E"/>
<path d="M37.0386 2.9625L37.1186 19.9225C37.1186 29.3625 29.4386 37.0425 19.9986 37.0425C10.6386 37.0425 3.0386 29.4425 3.0386 20.0825V2.9625C3.0386 2.9625 3.0386 2.8825 3.1186 2.8825H37.0386M37.0386 0.5625H3.0386C1.6786 0.5625 0.558594 1.6825 0.558594 3.0425V20.1625C0.558594 30.8825 9.1986 39.5225 19.9186 39.5225C30.7186 39.5225 39.4386 30.8025 39.4386 20.0025V3.0425C39.4386 1.6025 38.3986 0.5625 37.0386 0.5625Z" fill="#15803D"/>
<path d="M18.5609 11.3594H21.5209L27.2009 25.2794H23.9209L22.8009 22.3994H17.2009L16.0809 25.2794H12.9609L18.5609 11.3594ZM18.0809 19.9994H21.8409L21.2809 18.4794C20.8809 17.3594 20.4009 15.9994 20.0009 14.9594C19.6009 15.9994 19.1209 17.3594 18.7209 18.5594L18.0809 19.9994Z" fill="#E8EBED"/>
</g>
<defs>
<clipPath id="clip0_3712_72773">
<rect width="40" height="40" fill="white"/>
</clipPath>
</defs>
</svg>
