<svg width="40" height="40" viewBox="0 0 40 40" fill="none" xmlns="http://www.w3.org/2000/svg">
<g clip-path="url(#clip0_3712_72853)">
<path d="M20.2391 33.1969C12.9591 33.1969 7.03906 27.2769 7.03906 19.9969C7.03906 12.7169 12.9591 6.79688 20.2391 6.79688C27.5191 6.79688 33.4391 12.7169 33.4391 19.9969C33.4391 27.2769 27.5991 33.1969 20.2391 33.1969Z" fill="#7C848D"/>
<path d="M19.8416 38.4016C13.6016 38.4016 7.76158 35.2016 4.40158 30.0016C-1.11842 21.5216 1.36158 10.0816 9.84158 4.64156C12.8016 2.64156 16.2416 1.60156 19.7616 1.60156C25.1216 1.60156 30.1616 3.84156 33.6016 7.84157L36.0016 6.64157C36.2416 6.48157 36.5616 6.48156 36.8016 6.48156C37.3616 6.48156 37.8416 6.72156 38.2416 7.20156C38.5616 7.68156 38.6416 8.24156 38.4816 8.72156L36.2416 15.8416C36.0016 16.5616 35.3616 17.0416 34.5616 17.0416C34.4016 17.0416 34.2416 17.0416 34.0016 16.9616L26.8816 14.7216C26.2416 14.4816 25.7616 13.9216 25.6816 13.2016C25.6016 12.4816 26.0016 11.8416 26.6416 11.5216L28.3216 10.6416C26.0016 8.56157 22.9616 7.36156 19.7616 7.36156C17.3616 7.36156 14.9616 8.08156 12.9616 9.36156C10.1616 11.2016 8.16158 14.0016 7.52158 17.2816C6.80158 20.5616 7.44158 23.9216 9.28158 26.8016C11.6016 30.4016 15.6016 32.5616 19.9216 32.5616C22.3216 32.5616 24.7216 31.8416 26.7216 30.5616C28.8816 29.2016 30.4816 27.2016 31.4416 24.8816L31.9216 23.7616L37.2016 26.0016L36.7216 27.2016C35.2816 30.5616 32.8816 33.4416 29.7616 35.4416C26.8016 37.3616 23.3616 38.4016 19.8416 38.4016Z" fill="#E8EBED"/>
<path d="M19.7615 2.79844C24.8815 2.79844 30.0015 5.11843 33.2815 9.35844L36.4815 7.67844C36.5615 7.59844 36.6415 7.59844 36.7215 7.59844C37.0415 7.59844 37.3615 7.91844 37.2015 8.31844L34.9615 15.4384C34.8815 15.6784 34.6415 15.8384 34.4815 15.8384C34.4015 15.8384 34.4015 15.8384 34.3215 15.8384L27.2815 13.5984C26.8015 13.4384 26.8015 12.7984 27.2015 12.6384L30.3215 11.0384C27.6015 7.91844 23.7615 6.23844 19.8415 6.23844C17.2815 6.23844 14.6415 6.95844 12.4015 8.47844C6.00149 12.6384 4.16149 21.1984 8.32149 27.5984C10.9615 31.6784 15.4415 33.9184 19.9215 33.9184C22.4815 33.9184 25.1215 33.1984 27.4415 31.6784C29.7615 30.1584 31.6015 27.9984 32.6415 25.5184L35.7615 26.7984C34.4015 29.9984 32.1615 32.6384 29.2815 34.4784C26.4015 36.3184 23.2015 37.1984 20.0015 37.1984C14.4015 37.1984 8.88149 34.3984 5.60149 29.3584C0.241492 21.3584 2.56149 10.7184 10.4815 5.59844C13.3615 3.75844 16.5615 2.79844 19.7615 2.79844ZM19.7615 0.398438C16.0015 0.398438 12.3215 1.51844 9.12149 3.51844C0.0814934 9.43844 -2.47851 21.5984 3.36149 30.6384C6.96149 36.2384 13.1215 39.5984 19.8415 39.5984C23.6015 39.5984 27.2815 38.4784 30.4815 36.4784C33.7615 34.3184 36.3215 31.2784 37.8415 27.6784L38.8015 25.4384L36.5615 24.4784L33.4415 23.1984L31.2015 22.2384L30.2415 24.4784C29.3615 26.5584 27.8415 28.3184 25.9215 29.5984C24.0815 30.7984 21.9215 31.4384 19.7615 31.4384C15.8415 31.4384 12.2415 29.5184 10.1615 26.2384C6.80149 20.9584 8.32149 13.8384 13.6015 10.3984C15.4415 9.19844 17.6015 8.55844 19.7615 8.55844C22.0815 8.55844 24.2415 9.19844 26.0815 10.4784C25.0415 11.0384 24.4015 12.1584 24.4815 13.3584C24.5615 14.5584 25.3615 15.5184 26.5615 15.9184L33.6815 18.1584C34.0015 18.2384 34.2415 18.3184 34.5615 18.3184C35.8415 18.3184 36.9615 17.5184 37.3615 16.2384L39.6015 9.11844C39.9215 8.23844 39.6815 7.27844 39.2015 6.47844C38.6415 5.75844 37.7615 5.27844 36.8015 5.27844C36.3215 5.27844 35.8415 5.35844 35.4415 5.59844L33.9215 6.39844C30.2415 2.55844 25.2015 0.398438 19.7615 0.398438Z" fill="#7C848D"/>
<path d="M18.1612 20.32L13.9213 14H17.3612L18.5612 15.84C19.0412 16.64 19.6013 17.44 20.0813 18.16C20.5613 17.44 21.0413 16.64 21.5213 15.84L22.7213 14H26.0813L21.8413 20.32L26.8013 27.52H23.2813L21.3612 24.64C20.8812 23.92 20.4013 23.12 19.9213 22.4C19.4413 23.12 19.0412 23.84 18.5612 24.56L16.6413 27.44H13.2812L18.1612 20.32Z" fill="#E8EBED"/>
</g>
<defs>
<clipPath id="clip0_3712_72853">
<rect width="40" height="40" fill="white"/>
</clipPath>
</defs>
</svg>
